<svg xmlns="http://www.w3.org/2000/svg" width="340" height="160" viewBox="0 0 340 160">
  <defs><marker id="arr_3b82f6" markerWidth="6" markerHeight="6" refX="5" refY="3" orient="auto"><path d="M0,0 L0,6 L6,3 z" fill="#3b82f6"/></marker><marker id="arr_22c55e" markerWidth="6" markerHeight="6" refX="5" refY="3" orient="auto"><path d="M0,0 L0,6 L6,3 z" fill="#22c55e"/></marker><marker id="arr_ef4444" markerWidth="6" markerHeight="6" refX="5" refY="3" orient="auto"><path d="M0,0 L0,6 L6,3 z" fill="#ef4444"/></marker><marker id="arr_8b5cf6" markerWidth="6" markerHeight="6" refX="5" refY="3" orient="auto"><path d="M0,0 L0,6 L6,3 z" fill="#8b5cf6"/></marker><marker id="arr_f59e0b" markerWidth="6" markerHeight="6" refX="5" refY="3" orient="auto"><path d="M0,0 L0,6 L6,3 z" fill="#f59e0b"/></marker><marker id="arr_6b7280" markerWidth="6" markerHeight="6" refX="5" refY="3" orient="auto"><path d="M0,0 L0,6 L6,3 z" fill="#6b7280"/></marker></defs>
  <rect width="340" height="160" fill="#0d0d0d" rx="8"/>
  <rect x="10" y="40" width="80" height="36" rx="6" fill="#1a1a1a" stroke="#3b82f6" stroke-width="1.5"/>
<text x="50" y="54" text-anchor="middle" dominant-baseline="middle" fill="#e2e8f0" font-size="10" font-weight="600" font-family="Inter,sans-serif">MLflow</text>
<text x="50" y="68" text-anchor="middle" dominant-baseline="middle" fill="#94a3b8" font-size="8" font-family="Inter,sans-serif">Model Registry</text><line x1="90" y1="58" x2="130" y2="58" stroke="#3b82f6" stroke-width="1.5" marker-end="url(#arr_3b82f6)"/><rect x="130" y="40" width="80" height="36" rx="6" fill="#1a1a1a" stroke="#ef4444" stroke-width="1.5"/>
<text x="170" y="54" text-anchor="middle" dominant-baseline="middle" fill="#e2e8f0" font-size="10" font-weight="600" font-family="Inter,sans-serif">OPA Gate</text>
<text x="170" y="68" text-anchor="middle" dominant-baseline="middle" fill="#94a3b8" font-size="8" font-family="Inter,sans-serif">Policy check</text><line x1="210" y1="58" x2="250" y2="58" stroke="#22c55e" stroke-width="1.5" marker-end="url(#arr_22c55e)"/><rect x="250" y="40" width="80" height="36" rx="6" fill="#1a1a1a" stroke="#22c55e" stroke-width="1.5"/>
<text x="290" y="54" text-anchor="middle" dominant-baseline="middle" fill="#e2e8f0" font-size="10" font-weight="600" font-family="Inter,sans-serif">SageMaker</text>
<text x="290" y="68" text-anchor="middle" dominant-baseline="middle" fill="#94a3b8" font-size="8" font-family="Inter,sans-serif">Deploy</text><rect x="130" y="100" width="80" height="36" rx="6" fill="#1a1a1a" stroke="#8b5cf6" stroke-width="1.5"/>
<text x="170" y="114" text-anchor="middle" dominant-baseline="middle" fill="#e2e8f0" font-size="10" font-weight="600" font-family="Inter,sans-serif">Evidently</text>
<text x="170" y="128" text-anchor="middle" dominant-baseline="middle" fill="#94a3b8" font-size="8" font-family="Inter,sans-serif">Drift detect</text><line x1="290" y1="76" x2="290" y2="100" stroke="#f59e0b" stroke-width="1.5" marker-end="url(#arr_f59e0b)"/><line x1="210" y1="118" x2="250" y2="118" stroke="#f59e0b" stroke-width="1.5" marker-end="url(#arr_f59e0b)"/><text x="170" y="148" text-anchor="middle" fill="#94a3b8" font-size="8" font-family="Inter,sans-serif">EU AI Act · bias check · cost approval</text>
</svg>