<svg xmlns="http://www.w3.org/2000/svg" width="340" height="160" viewBox="0 0 340 160">
  <defs><marker id="arr_3b82f6" markerWidth="6" markerHeight="6" refX="5" refY="3" orient="auto"><path d="M0,0 L0,6 L6,3 z" fill="#3b82f6"/></marker><marker id="arr_22c55e" markerWidth="6" markerHeight="6" refX="5" refY="3" orient="auto"><path d="M0,0 L0,6 L6,3 z" fill="#22c55e"/></marker><marker id="arr_ef4444" markerWidth="6" markerHeight="6" refX="5" refY="3" orient="auto"><path d="M0,0 L0,6 L6,3 z" fill="#ef4444"/></marker><marker id="arr_8b5cf6" markerWidth="6" markerHeight="6" refX="5" refY="3" orient="auto"><path d="M0,0 L0,6 L6,3 z" fill="#8b5cf6"/></marker><marker id="arr_f59e0b" markerWidth="6" markerHeight="6" refX="5" refY="3" orient="auto"><path d="M0,0 L0,6 L6,3 z" fill="#f59e0b"/></marker><marker id="arr_6b7280" markerWidth="6" markerHeight="6" refX="5" refY="3" orient="auto"><path d="M0,0 L0,6 L6,3 z" fill="#6b7280"/></marker></defs>
  <rect width="340" height="160" fill="#0d0d0d" rx="8"/>
  <rect x="10" y="20" width="100" height="30" rx="6" fill="#1a1a1a" stroke="#3b82f6" stroke-width="1.5"/>
<text x="60" y="31" text-anchor="middle" dominant-baseline="middle" fill="#e2e8f0" font-size="10" font-weight="600" font-family="Inter,sans-serif">GitHub Actions</text>
<text x="60" y="45" text-anchor="middle" dominant-baseline="middle" fill="#94a3b8" font-size="8" font-family="Inter,sans-serif">Hosted runners</text><rect x="10" y="60" width="100" height="30" rx="6" fill="#1a1a1a" stroke="#ef4444" stroke-width="1.5"/>
<text x="60" y="71" text-anchor="middle" dominant-baseline="middle" fill="#e2e8f0" font-size="10" font-weight="600" font-family="Inter,sans-serif">Jenkins</text>
<text x="60" y="85" text-anchor="middle" dominant-baseline="middle" fill="#94a3b8" font-size="8" font-family="Inter,sans-serif">EC2 agents</text><rect x="10" y="100" width="100" height="30" rx="6" fill="#1a1a1a" stroke="#f59e0b" stroke-width="1.5"/>
<text x="60" y="111" text-anchor="middle" dominant-baseline="middle" fill="#e2e8f0" font-size="10" font-weight="600" font-family="Inter,sans-serif">GitLab CI</text>
<text x="60" y="125" text-anchor="middle" dominant-baseline="middle" fill="#94a3b8" font-size="8" font-family="Inter,sans-serif">K8s executor</text><line x1="110" y1="35" x2="150" y2="35" stroke="#3b82f6" stroke-width="1.5" marker-end="url(#arr_3b82f6)"/><line x1="110" y1="75" x2="150" y2="75" stroke="#ef4444" stroke-width="1.5" marker-end="url(#arr_ef4444)"/><line x1="110" y1="115" x2="150" y2="115" stroke="#f59e0b" stroke-width="1.5" marker-end="url(#arr_f59e0b)"/><rect x="150" y="10" width="180" height="140" rx="6" fill="#1a1a1a" stroke="#2a2a2a" stroke-width="1"/><text x="240" y="35" text-anchor="middle" fill="#3b82f6" font-size="9" font-weight="600" font-family="Inter,sans-serif">4m 12s</text><text x="240" y="75" text-anchor="middle" fill="#ef4444" font-size="9" font-weight="600" font-family="Inter,sans-serif">6m 05s</text><text x="240" y="115" text-anchor="middle" fill="#f59e0b" font-size="9" font-weight="600" font-family="Inter,sans-serif">3m 55s</text><text x="240" y="145" text-anchor="middle" fill="#94a3b8" font-size="8" font-family="Inter,sans-serif">same pipeline · real benchmark</text>
</svg>