<svg xmlns="http://www.w3.org/2000/svg" width="340" height="160" viewBox="0 0 340 160">
  <defs><marker id="arr_3b82f6" markerWidth="6" markerHeight="6" refX="5" refY="3" orient="auto"><path d="M0,0 L0,6 L6,3 z" fill="#3b82f6"/></marker><marker id="arr_22c55e" markerWidth="6" markerHeight="6" refX="5" refY="3" orient="auto"><path d="M0,0 L0,6 L6,3 z" fill="#22c55e"/></marker><marker id="arr_ef4444" markerWidth="6" markerHeight="6" refX="5" refY="3" orient="auto"><path d="M0,0 L0,6 L6,3 z" fill="#ef4444"/></marker><marker id="arr_8b5cf6" markerWidth="6" markerHeight="6" refX="5" refY="3" orient="auto"><path d="M0,0 L0,6 L6,3 z" fill="#8b5cf6"/></marker><marker id="arr_f59e0b" markerWidth="6" markerHeight="6" refX="5" refY="3" orient="auto"><path d="M0,0 L0,6 L6,3 z" fill="#f59e0b"/></marker><marker id="arr_6b7280" markerWidth="6" markerHeight="6" refX="5" refY="3" orient="auto"><path d="M0,0 L0,6 L6,3 z" fill="#6b7280"/></marker></defs>
  <rect width="340" height="160" fill="#0d0d0d" rx="8"/>
  <rect x="10" y="10" width="320" height="140" rx="6" fill="none" stroke="#3b82f6" stroke-width="1" stroke-dasharray="4,3"/><rect x="20" y="20" width="90" height="34" rx="6" fill="#1a1a1a" stroke="#3b82f6" stroke-width="1.5"/>
<text x="65" y="33" text-anchor="middle" dominant-baseline="middle" fill="#e2e8f0" font-size="10" font-weight="600" font-family="Inter,sans-serif">EKS Control</text>
<text x="65" y="47" text-anchor="middle" dominant-baseline="middle" fill="#94a3b8" font-size="8" font-family="Inter,sans-serif">Managed</text><rect x="20" y="70" width="90" height="34" rx="6" fill="#1a1a1a" stroke="#22c55e" stroke-width="1.5"/>
<text x="65" y="83" text-anchor="middle" dominant-baseline="middle" fill="#e2e8f0" font-size="10" font-weight="600" font-family="Inter,sans-serif">App Nodes</text>
<text x="65" y="97" text-anchor="middle" dominant-baseline="middle" fill="#94a3b8" font-size="8" font-family="Inter,sans-serif">t3.large ×3</text><rect x="20" y="110" width="90" height="28" rx="6" fill="#1a1a1a" stroke="#22c55e" stroke-width="1.5"/>
<text x="65" y="120" text-anchor="middle" dominant-baseline="middle" fill="#e2e8f0" font-size="10" font-weight="600" font-family="Inter,sans-serif">System Nodes</text>
<text x="65" y="134" text-anchor="middle" dominant-baseline="middle" fill="#94a3b8" font-size="8" font-family="Inter,sans-serif">t3.medium ×2</text><rect x="130" y="20" width="80" height="34" rx="6" fill="#1a1a1a" stroke="#8b5cf6" stroke-width="1.5"/>
<text x="170" y="33" text-anchor="middle" dominant-baseline="middle" fill="#e2e8f0" font-size="10" font-weight="600" font-family="Inter,sans-serif">Cluster Auto</text>
<text x="170" y="47" text-anchor="middle" dominant-baseline="middle" fill="#94a3b8" font-size="8" font-family="Inter,sans-serif">1–6 scaling</text><rect x="130" y="65" width="80" height="34" rx="6" fill="#1a1a1a" stroke="#f59e0b" stroke-width="1.5"/>
<text x="170" y="78" text-anchor="middle" dominant-baseline="middle" fill="#e2e8f0" font-size="10" font-weight="600" font-family="Inter,sans-serif">ALB Ingress</text>
<text x="170" y="92" text-anchor="middle" dominant-baseline="middle" fill="#94a3b8" font-size="8" font-family="Inter,sans-serif">HTTPS</text><rect x="130" y="110" width="80" height="28" rx="6" fill="#1a1a1a" stroke="#3b82f6" stroke-width="1.5"/>
<text x="170" y="120" text-anchor="middle" dominant-baseline="middle" fill="#e2e8f0" font-size="10" font-weight="600" font-family="Inter,sans-serif">IRSA</text>
<text x="170" y="134" text-anchor="middle" dominant-baseline="middle" fill="#94a3b8" font-size="8" font-family="Inter,sans-serif">Per-pod IAM</text><rect x="230" y="40" width="90" height="34" rx="6" fill="#1a1a1a" stroke="#ef4444" stroke-width="1.5"/>
<text x="275" y="53" text-anchor="middle" dominant-baseline="middle" fill="#e2e8f0" font-size="10" font-weight="600" font-family="Inter,sans-serif">ECR</text>
<text x="275" y="67" text-anchor="middle" dominant-baseline="middle" fill="#94a3b8" font-size="8" font-family="Inter,sans-serif">Container reg</text><line x1="110" y1="37" x2="130" y2="37" stroke="#3b82f6" stroke-width="1.5" marker-end="url(#arr_3b82f6)"/><text x="30" y="150" fill="#94a3b8" font-size="8" font-family="Inter,sans-serif">private subnets · NAT per AZ</text>
</svg>