<svg xmlns="http://www.w3.org/2000/svg" width="340" height="160" viewBox="0 0 340 160">
  <defs><marker id="arr_3b82f6" markerWidth="6" markerHeight="6" refX="5" refY="3" orient="auto"><path d="M0,0 L0,6 L6,3 z" fill="#3b82f6"/></marker><marker id="arr_22c55e" markerWidth="6" markerHeight="6" refX="5" refY="3" orient="auto"><path d="M0,0 L0,6 L6,3 z" fill="#22c55e"/></marker><marker id="arr_ef4444" markerWidth="6" markerHeight="6" refX="5" refY="3" orient="auto"><path d="M0,0 L0,6 L6,3 z" fill="#ef4444"/></marker><marker id="arr_8b5cf6" markerWidth="6" markerHeight="6" refX="5" refY="3" orient="auto"><path d="M0,0 L0,6 L6,3 z" fill="#8b5cf6"/></marker><marker id="arr_f59e0b" markerWidth="6" markerHeight="6" refX="5" refY="3" orient="auto"><path d="M0,0 L0,6 L6,3 z" fill="#f59e0b"/></marker><marker id="arr_6b7280" markerWidth="6" markerHeight="6" refX="5" refY="3" orient="auto"><path d="M0,0 L0,6 L6,3 z" fill="#6b7280"/></marker></defs>
  <rect width="340" height="160" fill="#0d0d0d" rx="8"/>
  <rect x="10" y="55" width="70" height="34" rx="6" fill="#1a1a1a" stroke="#3b82f6" stroke-width="1.5"/>
<text x="45" y="68" text-anchor="middle" dominant-baseline="middle" fill="#e2e8f0" font-size="10" font-weight="600" font-family="Inter,sans-serif">Git Repo</text>
<text x="45" y="82" text-anchor="middle" dominant-baseline="middle" fill="#94a3b8" font-size="8" font-family="Inter,sans-serif">single source</text><line x1="80" y1="72" x2="120" y2="50" stroke="#22c55e" stroke-width="1.5" marker-end="url(#arr_22c55e)"/><line x1="80" y1="72" x2="120" y2="95" stroke="#8b5cf6" stroke-width="1.5" marker-end="url(#arr_8b5cf6)"/><rect x="120" y="35" width="85" height="34" rx="6" fill="#1a1a1a" stroke="#22c55e" stroke-width="1.5"/>
<text x="162" y="48" text-anchor="middle" dominant-baseline="middle" fill="#e2e8f0" font-size="10" font-weight="600" font-family="Inter,sans-serif">ArgoCD</text>
<text x="162" y="62" text-anchor="middle" dominant-baseline="middle" fill="#94a3b8" font-size="8" font-family="Inter,sans-serif">AWS EKS</text><rect x="120" y="80" width="85" height="34" rx="6" fill="#1a1a1a" stroke="#8b5cf6" stroke-width="1.5"/>
<text x="162" y="93" text-anchor="middle" dominant-baseline="middle" fill="#e2e8f0" font-size="10" font-weight="600" font-family="Inter,sans-serif">Flux</text>
<text x="162" y="107" text-anchor="middle" dominant-baseline="middle" fill="#94a3b8" font-size="8" font-family="Inter,sans-serif">GCP GKE</text><line x1="205" y1="52" x2="240" y2="52" stroke="#22c55e" stroke-width="1.5" marker-end="url(#arr_22c55e)"/><line x1="205" y1="97" x2="240" y2="97" stroke="#8b5cf6" stroke-width="1.5" marker-end="url(#arr_8b5cf6)"/><rect x="240" y="35" width="90" height="34" rx="6" fill="#1a1a1a" stroke="#22c55e" stroke-width="1.5"/>
<text x="285" y="48" text-anchor="middle" dominant-baseline="middle" fill="#e2e8f0" font-size="10" font-weight="600" font-family="Inter,sans-serif">EKS</text>
<text x="285" y="62" text-anchor="middle" dominant-baseline="middle" fill="#94a3b8" font-size="8" font-family="Inter,sans-serif">Production</text><rect x="240" y="80" width="90" height="34" rx="6" fill="#1a1a1a" stroke="#8b5cf6" stroke-width="1.5"/>
<text x="285" y="93" text-anchor="middle" dominant-baseline="middle" fill="#e2e8f0" font-size="10" font-weight="600" font-family="Inter,sans-serif">GKE</text>
<text x="285" y="107" text-anchor="middle" dominant-baseline="middle" fill="#94a3b8" font-size="8" font-family="Inter,sans-serif">Production</text><text x="170" y="145" text-anchor="middle" fill="#f59e0b" font-size="8" font-family="Inter,sans-serif">SageMaker anomaly detection</text>
</svg>