<svg xmlns="http://www.w3.org/2000/svg" width="340" height="160" viewBox="0 0 340 160">
  <defs><marker id="arr_3b82f6" markerWidth="6" markerHeight="6" refX="5" refY="3" orient="auto"><path d="M0,0 L0,6 L6,3 z" fill="#3b82f6"/></marker><marker id="arr_22c55e" markerWidth="6" markerHeight="6" refX="5" refY="3" orient="auto"><path d="M0,0 L0,6 L6,3 z" fill="#22c55e"/></marker><marker id="arr_ef4444" markerWidth="6" markerHeight="6" refX="5" refY="3" orient="auto"><path d="M0,0 L0,6 L6,3 z" fill="#ef4444"/></marker><marker id="arr_8b5cf6" markerWidth="6" markerHeight="6" refX="5" refY="3" orient="auto"><path d="M0,0 L0,6 L6,3 z" fill="#8b5cf6"/></marker><marker id="arr_f59e0b" markerWidth="6" markerHeight="6" refX="5" refY="3" orient="auto"><path d="M0,0 L0,6 L6,3 z" fill="#f59e0b"/></marker><marker id="arr_6b7280" markerWidth="6" markerHeight="6" refX="5" refY="3" orient="auto"><path d="M0,0 L0,6 L6,3 z" fill="#6b7280"/></marker></defs>
  <rect width="340" height="160" fill="#0d0d0d" rx="8"/>
  <rect x="10" y="30" width="80" height="30" rx="6" fill="#1a1a1a" stroke="#f59e0b" stroke-width="1.5"/>
<text x="50" y="41" text-anchor="middle" dominant-baseline="middle" fill="#e2e8f0" font-size="10" font-weight="600" font-family="Inter,sans-serif">Prometheus</text>
<text x="50" y="55" text-anchor="middle" dominant-baseline="middle" fill="#94a3b8" font-size="8" font-family="Inter,sans-serif">Metrics</text><rect x="10" y="70" width="80" height="30" rx="6" fill="#1a1a1a" stroke="#22c55e" stroke-width="1.5"/>
<text x="50" y="81" text-anchor="middle" dominant-baseline="middle" fill="#e2e8f0" font-size="10" font-weight="600" font-family="Inter,sans-serif">ELK Stack</text>
<text x="50" y="95" text-anchor="middle" dominant-baseline="middle" fill="#94a3b8" font-size="8" font-family="Inter,sans-serif">Logs</text><rect x="10" y="110" width="80" height="30" rx="6" fill="#1a1a1a" stroke="#3b82f6" stroke-width="1.5"/>
<text x="50" y="121" text-anchor="middle" dominant-baseline="middle" fill="#e2e8f0" font-size="10" font-weight="600" font-family="Inter,sans-serif">Jaeger</text>
<text x="50" y="135" text-anchor="middle" dominant-baseline="middle" fill="#94a3b8" font-size="8" font-family="Inter,sans-serif">Traces</text><line x1="90" y1="45" x2="130" y2="60" stroke="#f59e0b" stroke-width="1.5" marker-end="url(#arr_f59e0b)"/><line x1="90" y1="85" x2="130" y2="75" stroke="#22c55e" stroke-width="1.5" marker-end="url(#arr_22c55e)"/><line x1="90" y1="125" x2="130" y2="90" stroke="#3b82f6" stroke-width="1.5" marker-end="url(#arr_3b82f6)"/><rect x="130" y="55" width="90" height="40" rx="6" fill="#1a1a1a" stroke="#ef4444" stroke-width="1.5"/>
<text x="175" y="71" text-anchor="middle" dominant-baseline="middle" fill="#e2e8f0" font-size="10" font-weight="600" font-family="Inter,sans-serif">Grafana</text>
<text x="175" y="85" text-anchor="middle" dominant-baseline="middle" fill="#94a3b8" font-size="8" font-family="Inter,sans-serif">Unified view</text><line x1="220" y1="75" x2="260" y2="55" stroke="#ef4444" stroke-width="1.5" marker-end="url(#arr_ef4444)"/><rect x="260" y="30" width="70" height="30" rx="6" fill="#1a1a1a" stroke="#ef4444" stroke-width="1.5"/>
<text x="295" y="41" text-anchor="middle" dominant-baseline="middle" fill="#e2e8f0" font-size="10" font-weight="600" font-family="Inter,sans-serif">Alertmanager</text>
<text x="295" y="55" text-anchor="middle" dominant-baseline="middle" fill="#94a3b8" font-size="8" font-family="Inter,sans-serif">PagerDuty</text><rect x="260" y="75" width="70" height="30" rx="6" fill="#1a1a1a" stroke="#8b5cf6" stroke-width="1.5"/>
<text x="295" y="86" text-anchor="middle" dominant-baseline="middle" fill="#e2e8f0" font-size="10" font-weight="600" font-family="Inter,sans-serif">SLO boards</text>
<text x="295" y="100" text-anchor="middle" dominant-baseline="middle" fill="#94a3b8" font-size="8" font-family="Inter,sans-serif">Error budget</text><text x="170" y="148" text-anchor="middle" fill="#94a3b8" font-size="8" font-family="Inter,sans-serif">metrics · logs · traces correlated</text>
</svg>