<svg xmlns="http://www.w3.org/2000/svg" width="340" height="160" viewBox="0 0 340 160">
  <defs><marker id="arr_3b82f6" markerWidth="6" markerHeight="6" refX="5" refY="3" orient="auto"><path d="M0,0 L0,6 L6,3 z" fill="#3b82f6"/></marker><marker id="arr_22c55e" markerWidth="6" markerHeight="6" refX="5" refY="3" orient="auto"><path d="M0,0 L0,6 L6,3 z" fill="#22c55e"/></marker><marker id="arr_ef4444" markerWidth="6" markerHeight="6" refX="5" refY="3" orient="auto"><path d="M0,0 L0,6 L6,3 z" fill="#ef4444"/></marker><marker id="arr_8b5cf6" markerWidth="6" markerHeight="6" refX="5" refY="3" orient="auto"><path d="M0,0 L0,6 L6,3 z" fill="#8b5cf6"/></marker><marker id="arr_f59e0b" markerWidth="6" markerHeight="6" refX="5" refY="3" orient="auto"><path d="M0,0 L0,6 L6,3 z" fill="#f59e0b"/></marker><marker id="arr_6b7280" markerWidth="6" markerHeight="6" refX="5" refY="3" orient="auto"><path d="M0,0 L0,6 L6,3 z" fill="#6b7280"/></marker></defs>
  <rect width="340" height="160" fill="#0d0d0d" rx="8"/>
  <rect x="10" y="55" width="70" height="34" rx="6" fill="#1a1a1a" stroke="#8b5cf6" stroke-width="1.5"/>
<text x="45" y="68" text-anchor="middle" dominant-baseline="middle" fill="#e2e8f0" font-size="10" font-weight="600" font-family="Inter,sans-serif">CloudFront</text>
<text x="45" y="82" text-anchor="middle" dominant-baseline="middle" fill="#94a3b8" font-size="8" font-family="Inter,sans-serif">CDN + S3</text><line x1="80" y1="72" x2="120" y2="72" stroke="#3b82f6" stroke-width="1.5" marker-end="url(#arr_3b82f6)"/><rect x="120" y="55" width="75" height="34" rx="6" fill="#1a1a1a" stroke="#3b82f6" stroke-width="1.5"/>
<text x="157" y="68" text-anchor="middle" dominant-baseline="middle" fill="#e2e8f0" font-size="10" font-weight="600" font-family="Inter,sans-serif">API Gateway</text>
<text x="157" y="82" text-anchor="middle" dominant-baseline="middle" fill="#94a3b8" font-size="8" font-family="Inter,sans-serif">REST v1</text><line x1="195" y1="72" x2="230" y2="55" stroke="#22c55e" stroke-width="1.5" marker-end="url(#arr_22c55e)"/><line x1="195" y1="72" x2="230" y2="72" stroke="#f59e0b" stroke-width="1.5" marker-end="url(#arr_f59e0b)"/><line x1="195" y1="72" x2="230" y2="89" stroke="#ef4444" stroke-width="1.5" marker-end="url(#arr_ef4444)"/><rect x="230" y="40" width="75" height="28" rx="6" fill="#1a1a1a" stroke="#22c55e" stroke-width="1.5"/>
<text x="267" y="50" text-anchor="middle" dominant-baseline="middle" fill="#e2e8f0" font-size="10" font-weight="600" font-family="Inter,sans-serif">Lambda</text>
<text x="267" y="64" text-anchor="middle" dominant-baseline="middle" fill="#94a3b8" font-size="8" font-family="Inter,sans-serif">list/create</text><rect x="230" y="72" width="75" height="28" rx="6" fill="#1a1a1a" stroke="#f59e0b" stroke-width="1.5"/>
<text x="267" y="82" text-anchor="middle" dominant-baseline="middle" fill="#e2e8f0" font-size="10" font-weight="600" font-family="Inter,sans-serif">DynamoDB</text>
<text x="267" y="96" text-anchor="middle" dominant-baseline="middle" fill="#94a3b8" font-size="8" font-family="Inter,sans-serif">on-demand</text><rect x="230" y="104" width="75" height="28" rx="6" fill="#1a1a1a" stroke="#ef4444" stroke-width="1.5"/>
<text x="267" y="114" text-anchor="middle" dominant-baseline="middle" fill="#e2e8f0" font-size="10" font-weight="600" font-family="Inter,sans-serif">Cognito</text>
<text x="267" y="128" text-anchor="middle" dominant-baseline="middle" fill="#94a3b8" font-size="8" font-family="Inter,sans-serif">JWT auth</text><text x="170" y="148" text-anchor="middle" fill="#94a3b8" font-size="8" font-family="Inter,sans-serif">zero idle cost · auto-scales</text>
</svg>